<svg width="100" height="100" viewBox="0 0 100 100" fill="none" xmlns="http://www.w3.org/2000/svg">
<path d="M5 14.0673C5 12.9261 5.92511 12.001 7.06629 12.001H18.1685V76.4691H5V14.0673Z" fill="white"/>
<path d="M5.22681 14.0663C5.22681 12.9251 6.15191 12 7.29309 12H17.8853V76.4681H5.22681V14.0663Z" fill="#1D2026"/>
<rect x="44.0535" y="12" width="12.6585" height="64.4681" fill="#1D2026"/>
<rect x="82.9146" y="12" width="12.6585" height="64.4681" fill="#45484C"/>
<rect x="17.9434" y="12" width="22.6044" height="12.712" fill="#1D2026"/>
<path d="M21.4604 46.3016C21.4604 45.1605 22.3856 44.2354 23.5267 44.2354H44.0649V56.9474H23.5267C22.3856 56.9474 21.4604 56.0223 21.4604 54.8811V46.3016Z" fill="#1D2026"/>
<rect x="60.5144" y="44.2354" width="22.6044" height="12.712" fill="#45484C"/>
</svg>
